<svg id="Logo_-_Outline" data-name="Logo - Outline" xmlns="http://www.w3.org/2000/svg" width="56" height="56" viewBox="0 0 56 56">
  <rect id="Rectangle_224" data-name="Rectangle 224" width="56" height="56" rx="12" fill="none"/>
  <path id="Rectangle_227" data-name="Rectangle 227" d="M4.421.211A4.211,4.211,0,0,0,.211,4.421V27.579a4.211,4.211,0,0,0,4.211,4.211H19.158A12.632,12.632,0,0,0,31.789,19.158V4.421A4.211,4.211,0,0,0,27.579.211H4.421M4.421-4H27.579A8.431,8.431,0,0,1,36,4.421V19.158A16.832,16.832,0,0,1,19.158,36H4.421A8.431,8.431,0,0,1-4,27.579V4.421A8.431,8.431,0,0,1,4.421-4Z" transform="translate(12 12)" fill="#f700ff"/>
  <text id="H" transform="translate(20 36)" fill="#f700ff" font-size="21" font-family="Inter-Black, Inter" font-weight="800"><tspan x="0" y="0">H</tspan></text>
</svg>
