<svg xmlns="http://www.w3.org/2000/svg" width="40" height="40" viewBox="0 0 40 40">
  <g id="Group_14" data-name="Group 14" transform="translate(-1464 -78)">
    <rect id="Rectangle_232" data-name="Rectangle 232" width="40" height="40" transform="translate(1464 78)" fill="none"/>
    <g id="calendar-2" transform="translate(1471.451 84.667)">
      <path id="Path_179" data-name="Path 179" d="M4,10H29.1V24.118a3.137,3.137,0,0,1-3.137,3.137H7.137A3.137,3.137,0,0,1,4,24.118Z" transform="translate(-4 -0.588)" fill="none" stroke="#202020" stroke-linecap="round" stroke-linejoin="round" stroke-width="3"/>
      <path id="Path_180" data-name="Path 180" d="M6.789,5H4v7.843H29.1V5H26.309M15.155,5h2.789" transform="translate(-4 -3.431)" fill="none" stroke="#202020" stroke-linecap="round" stroke-linejoin="round" stroke-width="3"/>
      <line id="Line_57" data-name="Line 57" y2="3.333" transform="translate(6.716)" fill="none" stroke="#202020" stroke-linecap="round" stroke-linejoin="round" stroke-width="3"/>
      <line id="Line_58" data-name="Line 58" y2="3.333" transform="translate(18.382)" fill="none" stroke="#202020" stroke-linecap="round" stroke-linejoin="round" stroke-width="3"/>
      <path id="Path_181" data-name="Path 181" d="M7,13h.016" transform="translate(-2.294 1.118)" fill="none" stroke="#202020" stroke-linecap="round" stroke-linejoin="round" stroke-width="3"/>
      <path id="Path_182" data-name="Path 182" d="M7,16h.016" transform="translate(-2.294 2.824)" fill="none" stroke="#202020" stroke-linecap="round" stroke-linejoin="round" stroke-width="3"/>
      <path id="Path_183" data-name="Path 183" d="M10,13h.016" transform="translate(-0.588 1.118)" fill="none" stroke="#202020" stroke-linecap="round" stroke-linejoin="round" stroke-width="3"/>
      <path id="Path_184" data-name="Path 184" d="M10,16h.016" transform="translate(-0.588 2.824)" fill="none" stroke="#202020" stroke-linecap="round" stroke-linejoin="round" stroke-width="3"/>
      <path id="Path_185" data-name="Path 185" d="M13,13h.016" transform="translate(1.118 1.118)" fill="none" stroke="#202020" stroke-linecap="round" stroke-linejoin="round" stroke-width="3"/>
    </g>
  </g>
</svg>
