<svg xmlns="http://www.w3.org/2000/svg" width="16" height="16" viewBox="0 0 16 16">
  <g id="book" transform="translate(-1464 -80)">
    <rect id="Rectangle_243" data-name="Rectangle 243" width="16" height="16" transform="translate(1464 80)" fill="none"/>
    <g id="book-open" transform="translate(1466 82.667)">
      <path id="Path_156" data-name="Path 156" d="M9,15.667V8.333A3.333,3.333,0,0,0,5.667,5H3v9.143" transform="translate(-3 -5)" fill="none" stroke="#67006c" stroke-linecap="round" stroke-linejoin="round" stroke-width="1"/>
      <path id="Path_157" data-name="Path 157" d="M3,19H6a3.211,3.211,0,0,1,3,1.333" transform="translate(-3 -9.667)" fill="none" stroke="#67006c" stroke-linecap="round" stroke-linejoin="round" stroke-width="1"/>
      <path id="Path_158" data-name="Path 158" d="M12,15.667V8.333A3.333,3.333,0,0,1,15.333,5H18v9.143" transform="translate(-6 -5)" fill="none" stroke="#67006c" stroke-linecap="round" stroke-linejoin="round" stroke-width="1"/>
      <path id="Path_159" data-name="Path 159" d="M18,19H15a3.211,3.211,0,0,0-3,1.333" transform="translate(-6 -9.667)" fill="none" stroke="#67006c" stroke-linecap="round" stroke-linejoin="round" stroke-width="1"/>
    </g>
  </g>
</svg>
